<svg id="Layer_1" data-name="Layer 1" xmlns="http://www.w3.org/2000/svg" viewBox="0 0 64 94.27"><defs><style>.cls-1{fill:#cea581;}.cls-2{fill:#b7895f;}.cls-3{fill:#b78c68;}.cls-4{fill:#d7ae90;}.cls-5{fill:#a97048;}.cls-6{fill:#dcb59c;}.cls-7{fill:#42332b;}.cls-8{fill:#4f1000;}.cls-9{fill:#b09f84;}.cls-10{fill:#c5b294;}.cls-11{fill:#a4957b;}.cls-12{fill:#c9b698;}.cls-13{fill:#dcc7a5;}.cls-14{fill:#c3b192;}.cls-15{fill:#dac6a3;}.cls-16{fill:#e3ceaa;}.cls-17{fill:#b8544e;}.cls-18,.cls-42{opacity:0.79;}.cls-19{fill:#cc5e5c;}.cls-20{fill:#724622;}.cls-21,.cls-41{fill:#946349;}.cls-22,.cls-42{fill:#78452a;}.cls-22{opacity:0.69;}.cls-23,.cls-34{fill:#5d3319;}.cls-23{opacity:0.65;}.cls-24{fill:#a57351;}.cls-25{fill:#8d593b;}.cls-26{fill:#a56f4e;}.cls-27,.cls-35{fill:#fff;}.cls-27,.cls-28,.cls-29{stroke:#000;stroke-width:0.25px;}.cls-27,.cls-28,.cls-29,.cls-36{stroke-miterlimit:10;}.cls-28{fill:#4f341c;}.cls-29{fill:#401c09;}.cls-30{fill:#431b02;}.cls-31{fill:#ab7a61;}.cls-32{fill:#592c12;}.cls-33{fill:#7d3b21;}.cls-34{opacity:0.85;}.cls-36{fill:none;stroke:#7e5133;}.cls-37{fill:#8f5431;}.cls-38{fill:#722e0d;}.cls-39{fill:#9d6b3d;}.cls-40{fill:#d4a58d;}.cls-41{opacity:0.76;}.cls-43{fill:#bb8365;}.cls-44{fill:#a56b4c;}.cls-45{fill:#dca886;}.cls-46{fill:#d5a07c;}.cls-47{fill:#ba815a;}.cls-48{fill:#8b4f25;}.cls-49{fill:#9f6d50;}.cls-50{fill:#6e3417;}.cls-51{fill:#c28d70;}</style></defs><path class="cls-1" d="M530.43,345.26s-4.93-10.47,11.33-12.54,26.29-2.63,26.29-2.63,6.41-.86,8,1.76,4.28,5.43,4.75,17.52l4.38,6.64s2.74-1.71,1.32,6.94c0,0-.72,1.21-.44,4.38,0,0,.17,2.3-.88,3.07,0,0,.32,4-.87,3.94,0,0-1,1.5-2.19.88,0,0,1.76,9.13-7,21S554.9,405,554.9,405a22.88,22.88,0,0,1-12.7-10.08c-5.06-8.21-6.87-7.3-8.33-18.84,0,0-2.36.78-1.75-4,0,0-.83.11-.88-2.19a26.45,26.45,0,0,0-1.51-7.69s-.88-3.41.8-3.16C530.53,359.11,531.06,349.76,530.43,345.26Z" transform="translate(-523.85 -311.12)"/><path class="cls-2" d="M545.88,371.16a8.81,8.81,0,0,1-1.6,5.24c-1.75,2.27-3.61,2.4-2.74,8.68,0,0,3.46-7.18,11.61-7.23a2.79,2.79,0,0,1-1.79-1.67c-.41-1.21-3.68.36-3.65-2.12,0-.41.62-2.94,2.83-1.29.33.25.39-.37.39-.62,0-1.78.37-3.79,1.34-4.38s.9-.44.94-2.16a24.16,24.16,0,0,0-.94-6.8c-.14-.24-4.16,3.11-4.53,6.55C547.4,368.48,546,371.53,545.88,371.16Z" transform="translate(-523.85 -311.12)"/><path class="cls-3" d="M543.51,386.08c.48,1,2.48,8.92,7.45,9.95a18.39,18.39,0,0,0,9.95-1.18s1.24-2.33-1.13-2.39-3.81,1.83-7.55.12-4-1.48-6-5.32S543.51,386.08,543.51,386.08Z" transform="translate(-523.85 -311.12)"/><path class="cls-4" d="M573.43,359s-2.7-2.41-8.21-2.75c0,0-5.06.13-4,3.29,1.83,5.38,5.88,3.37,5.88,3.37S573.31,361.78,573.43,359Z" transform="translate(-523.85 -311.12)"/><path class="cls-3" d="M535.34,359.12s4.32-4.75,10.37-3.11,5.25,4.08,5.25,4.08-5,7.26-7.51,6.38S536.2,364.17,535.34,359.12Z" transform="translate(-523.85 -311.12)"/><path class="cls-5" d="M549.72,359.12a2.22,2.22,0,0,0,2.51,2.86s1.55-4.13-2.52-5.72c-3.24-1.27-10.13-.59-11.1.42C538.61,356.68,547,354.36,549.72,359.12Z" transform="translate(-523.85 -311.12)"/><path class="cls-3" d="M530.83,337.9s7.25,6.16,3.92,12.78c0,0-2.66,2.78-1.52,8.87a55.55,55.55,0,0,1,2.11,15.23s2.55,3.19,3.27,11.2c0,0,10.87,12,8.45,14,0,0-12.68-11.81-13.19-23.86,0,0-2.21.78-1.75-4,0,0-.9,0-.89-2.43s-1.33-7.74-1.58-7.79-.57-3.37.88-2.82-.71-16.06-.71-16.06S528.84,339.24,530.83,337.9Z" transform="translate(-523.85 -311.12)"/><path class="cls-3" d="M553,377.51s4.18,1.51,6.27-1c0,0-1.17,3-.13,4.58,0,0-3,1.08-3.3-.41a21.81,21.81,0,0,1-3.26.19C551.66,380.78,553,377.51,553,377.51Z" transform="translate(-523.85 -311.12)"/><path class="cls-6" d="M555.61,348.26s-1.93,0-.21,2.59c1.36,2-.3,6.14,0,8.16,0,0,1.44,6.08,1.37,8.66,0,0,2.16,3.83-1.37,4.27,0,0-4.27,4,.45,3,0,0,3.71.07,4.73-1.5,0,0,.88-2.27-1.3-2.54s-2.44-11-2.44-11a3.77,3.77,0,0,1-.07-2.74,3.32,3.32,0,0,1-.92-4C557.5,349.59,555.61,348.26,555.61,348.26Z" transform="translate(-523.85 -311.12)"/><path class="cls-6" d="M580.75,360.76s-1.87-9-7.32-10-7.31.79-7.31.79-9.64,2.21-7.5-2.6,7.5-3.54,7.5-3.54,5.26.61,1.61-3.48c0,0-9.08,1.59-9.42-1.56a16.59,16.59,0,0,0-1.37-5.2L568,328.4l12.51,1.91,3,21.72-1.43,11.55Z" transform="translate(-523.85 -311.12)"/><path class="cls-7" d="M532.12,366.9s-.44-.44-.44-3.07-.44-10.95-.44-12.71c0-2.23-1.31-5.69-.87-10.51s11.39-7.89,11.39-7.89c.52,4.22,4,8.17,4.82,5.7a13.48,13.48,0,0,0,.43-3.07c1.08-4.46.55,2.52,7.45,2.19,2.23-.11,5.7-2.63,5.7-2.63s5.26.44,4.82-1.75c0,0,.92.24,1.56-1.41.17-.46,1-1.58,1.94-1.22,3.51,1.31,2.63,5.26,4.39,5.7,2.28.57,1.63-1,2.19-3.51.36-1.62,1.13-.8,1.31-.44,1.32,2.63,1.75,2.63,1.75,5.26s.44,4.82.88,3.94c0,0-.44,8.33,1.75,7.89,0,0,0,3.51.44,3.07s0,8.59,0,8.59.83,10.75.2,11.6c0,0,.68,1.71.68-6.61,0,0,.87-.88.87-5.7,0,0-.43-3.94,2.19-3.5v-4.89s.88-6.94.44-9.13c0,0,2.8-2.66,2.19-5.7-.44-2.19-.44-5.26-2.19-8.32,0,0,0-4.82-.44-5.26s0-1.75-3.06-3.51c0,0-.44-5.25-5.7-3.94a13.38,13.38,0,0,0-10.51-2.19s-2.2-3.51-4-2.19c0,0-5.26-1.75-12.27.88a7.29,7.29,0,0,0-5.25.43s-3.07-.87-4.82,1.32-4.39.87-4.39,5.26c0,0-4.81.87-6.57,3.94s-3.06,3.07-3.06,3.07-3.51,2.19-.44,5.69c0,0-.44,6.57,2.19,6.57,0,0,0,11,2.63,12.27l.48,7,0,.88s.87,0,.87,4.38S532.12,366.9,532.12,366.9Z" transform="translate(-523.85 -311.12)"/><path class="cls-8" d="M546.36,384.64s8.68,9.68,21.91-1.31c0,0,1-1-2.12,0,0,0-3,1.37-9.06,1.53s-7.45-.44-7.45-.44S545.45,383.81,546.36,384.64Z" transform="translate(-523.85 -311.12)"/><path id="Bottom-rear" class="cls-9" d="M561.47,386.17s-.86,1.67.88.88c0,0,1.3-.62.61-.88C563,386.17,561.88,385.9,561.47,386.17Z" transform="translate(-523.85 -311.12)"/><path id="Bottom-front" class="cls-10" d="M560.6,386.61s1-.18.87.88l-.87.14S560.34,387.63,560.6,386.61Z" transform="translate(-523.85 -311.12)"/><path id="Top-outer-left" class="cls-11" d="M548.33,384.42a1.91,1.91,0,0,0,1.31,1.75s.15.33,0-1.75Z" transform="translate(-523.85 -311.12)"/><path id="Top-outer-right" class="cls-12" d="M564.54,383.55s0,1.3,1.32.87c0,0,.48-.19.29-1.09A2.91,2.91,0,0,0,564.54,383.55Z" transform="translate(-523.85 -311.12)"/><path id="Top-right" class="cls-13" d="M562.35,383.55s-.07,2.57,1.75,1.71c0,0,.71,0,.44-1.71C564.54,383.55,563.3,383.57,562.35,383.55Z" transform="translate(-523.85 -311.12)"/><path id="Top-left" class="cls-14" d="M551.4,384.42s.26,2.86-.44,2.63c0,0-.72.32-1.32-1.31,0,0-.12-1.31,0-1.32h1.76Z" transform="translate(-523.85 -311.12)"/><path id="Top-left-center" class="cls-15" d="M552.28,384.44a.89.89,0,0,0-.94,1c0,1,1.32,2.82,1.73,2.05,0,0,.49-.05.86-1.84S552.28,384.44,552.28,384.44Z" transform="translate(-523.85 -311.12)"/><path id="Top-right-center" class="cls-13" d="M560.2,384.42s-.26,2.72.53,2.19a2.34,2.34,0,0,0,1.6-.44,3.9,3.9,0,0,0,0-1.75A3.17,3.17,0,0,0,560.2,384.42Z" transform="translate(-523.85 -311.12)"/><path class="cls-16" d="M555.37,384.6s-1.66-.27-1.68,1c0,2.09-.18,2.47,1.7,2.44s1.73-.75,1.73-.75v-1.84S557.27,384.41,555.37,384.6Z" transform="translate(-523.85 -311.12)"/><path id="Right" class="cls-16" d="M557.93,384.39s-.86.17-.84,1.78c0,0-.2,1.39.8,1.37,0,0,2.35.23,2.69-.6a7.24,7.24,0,0,0-.42-2.39C560,384.06,557.93,384.39,557.93,384.39Z" transform="translate(-523.85 -311.12)"/><path id="Lower_Lip" data-name="Lower Lip" class="cls-17" d="M568.41,382.89s.38.66-3.87,4.16a14.1,14.1,0,0,1-4.38,3.07c-3.14,1.52-8.33.44-8.33.44a9.47,9.47,0,0,1-5.25-5.26s.67-.58,2.63,1.31c0,0,2.89,1.42,4.21,1.42a19.31,19.31,0,0,0,7.9-.79s4.29-1.93,5.51-3.69Z" transform="translate(-523.85 -311.12)"/><path id="Upper_Lip" data-name="Upper Lip" class="cls-17" d="M545.88,384.42l3.63.07s3.14.37,4.08.37a66.66,66.66,0,0,0,8.76-.44l5.45-1.53s-6,.09-7.9-.53a4.8,4.8,0,0,0-2.37.63,5.61,5.61,0,0,1-3.07.12s-2.7-.72-3.73-.22S548.32,382.82,545.88,384.42Z" transform="translate(-523.85 -311.12)"/><g class="cls-18"><path class="cls-19" d="M568.24,383a21.9,21.9,0,0,1-8.35-.2,2.07,2.07,0,0,0-1.35.19,4.77,4.77,0,0,1-3.37.29,5.89,5.89,0,0,0,3-1,2.71,2.71,0,0,1,1.84-.42c2.76.58,5.46.49,8.19,1.12Z" transform="translate(-523.85 -311.12)"/></g><path class="cls-19" d="M568.42,383.3a25.82,25.82,0,0,1-6,5.83,15.25,15.25,0,0,1-3.86,1.85,13.33,13.33,0,0,1-4.23-.05c1.33-.25,2.72-.47,4-.72,3.7-1.63,6.84-4.43,10-6.91Z" transform="translate(-523.85 -311.12)"/><path class="cls-19" d="M546.12,384.43c1-1.31,2.94-1.39,4.31-1.71a6.26,6.26,0,0,1,4.74.52c-1.51.2-3-.18-4.46.44-1.65.4-3,.1-4.59.75Z" transform="translate(-523.85 -311.12)"/><path class="cls-20" d="M542.69,384.49s-1.27-2.9,1.26-4.45a2.91,2.91,0,0,1,1.93,0c1,.37,3.09-2.58,5.08-2.11a8.09,8.09,0,0,0,2.63.36s-.66,3.74-2.63,3.48-5.08,1.84-5.08,1.84S544.46,382,542.69,384.49Z" transform="translate(-523.85 -311.12)"/><path class="cls-21" d="M558.49,378.27c-1,.44-2,0-.24,2.64a4.5,4.5,0,0,0,3.8-.38s5.19,1.93,7.46.65c0,0,1-.38,1.89,2.37,0,0,1.45-3.32-.71-3.59a54.58,54.58,0,0,1-6.75-1C563.7,378.87,558.71,378.17,558.49,378.27Z" transform="translate(-523.85 -311.12)"/><path class="cls-22" d="M582.14,379s-.84,2.76-2.32,2.16-2.79-.72-3.45.61a4.15,4.15,0,0,0,0,4.4c1,1.55-2,1.84-2,1.84s-1.3,2,.59,3-.74,1.76-.74,1.76.65,1.35-1.39,2.24c0,0-1.83-.2-.91,1.26,0,0-3.18.37-2.08,2.19,0,0-2.93.15-2,1.79,0,0-1.58.31-1.07,1.72,0,0-2.61-.77-2.87.64s-3.9-3.16-9.89.53c0,0-.72-1.59-1.32-1.77s-2.53,1.49-3.88-3.34c0,0-.58-1.21-2.89-.67,0,0,.7-2.84-1.93-2.84,0,0,.28-3.35-2.11-2.92,0,0,.93-6.84-4-5.83,0,0-.83.17-3.27-7-1.12-3.3.46,4.91,1.48,6.72,3.23,5.73,8.25,14.54,17.57,19.2,0,0,2.77,1.48,9.57,0,0,0,8.15-3,12.14-9.48S580.79,387.21,582.14,379Z" transform="translate(-523.85 -311.12)"/><path class="cls-23" d="M534.31,379.44s3.65,18.12,19.37,25.05a4.78,4.78,0,0,0,1.72.7c.93.22,3.64-.19,4.76.05.85.18,1.73-.37,2.28-.45.9-.14,1.25,0,1.78-.25a35,35,0,0,0,9.7-7.43,32.08,32.08,0,0,0,4.26-6.48s3.54-6.42,3.46-9.73a31.83,31.83,0,0,1-2.24,6.18c-1.14,2.28-3.16,4.57-3.23,4.93-.29,1.59-.85,1.26-.85,1.26.06.77-.55,1.39-1.05,2-.3.37-.86.21-1.17.57s-.28,1.12-.55,1.42-1.49.32-1.86.67-.56.63-1,1a14.53,14.53,0,0,1-1.08,1c-.54.4.12,1-.81,1s-.43.71-2.82,1.85c-.93.45-2.35,0-3.26.22a9.56,9.56,0,0,1-3.47.37c-1.12-.05-1.36.11-2.29-.39-1.47-.81-1.08.31-2.91.08-.54-.07-.25-1.19-.67-1.46s-1.42.51-1.55.1c-.18-.58-.92-.79-1.31-1.22s-.37-2.14-.78-2.47-2.11.21-2.51-.15a36.07,36.07,0,0,1-3.86-4,21.19,21.19,0,0,0-1-2.07c-.89-1.64-.51-4.67-1.26-5.94-.64-1.11-2.62.53-3.27-.62A45.64,45.64,0,0,1,534.31,379.44Z" transform="translate(-523.85 -311.12)"/><path class="cls-24" d="M558.25,393.54s-2.47-.15-2.85.4a.88.88,0,0,0-.06,1,.81.81,0,0,1-.44.87c-.55.29,0,1.09,1.32.88s1.18-.47,2-.12,1-.76,1-.76,2.39.11,2.19-.87S562.52,392.69,558.25,393.54Z" transform="translate(-523.85 -311.12)"/><path class="cls-25" d="M558,393.62s-.69.12-.65.62-.68,1.22.65,2a.39.39,0,0,0,.44-.44v-1.45S558.45,393.57,558,393.62Z" transform="translate(-523.85 -311.12)"/><path class="cls-26" d="M556.86,393.65l.83.07s-.82,1.62.4,2.53c0,0,1.91.48-.88.47,0,0-.06.06-.56-.91s-.43.44-.43.44-.08.86-1.28.17c0,0-.55-.67.6-.76,0,0,.64-.3.24-1.16S556.86,393.65,556.86,393.65Z" transform="translate(-523.85 -311.12)"/><path class="cls-27" d="M538.69,359.23a6.64,6.64,0,0,1,9.42.44S540.32,360.89,538.69,359.23Z" transform="translate(-523.85 -311.12)"/><path class="cls-28" d="M541.91,360.07l.49,0c.61,0,1.18,0,1.78,0l.56,0c.87-.09.76-.75.76-1.44a3.68,3.68,0,0,0-.14-.75c-.19-.1-.13-.05-.43-.13a4.09,4.09,0,0,0-.81-.14c-.15,0-.79,0-1.15,0s-.15,0-.73.07c-.09,0-.21,0-.63.11l-.19.05-.28.1a1.15,1.15,0,0,0-.07.5C541.07,359.08,541.22,359.82,541.91,360.07Z" transform="translate(-523.85 -311.12)"/><circle class="cls-29" cx="19.22" cy="47.45" r="0.44"/><path class="cls-30" d="M538.61,359c2.29-3.28,8-3.08,10.07.3a26.38,26.38,0,0,0-10.07-.3Z" transform="translate(-523.85 -311.12)"/><path class="cls-31" d="M538.69,359c0,.23.21.36.38.45a13.38,13.38,0,0,0,4.47.38c1.54,0,3.7-.12,5.23-.1-1.72.42-9.63,1.42-10.08-.73Z" transform="translate(-523.85 -311.12)"/><path class="cls-32" d="M536,358.8c1.52-1.86,3.85-2.15,6-2.56,2.78-1,6.35-.12,7.62,2.74l-.08.06c-2.45-1.78-5.35-2.93-8.38-2.28a38.65,38.65,0,0,1-5.13,2.12l-.06-.08Z" transform="translate(-523.85 -311.12)"/><path class="cls-33" d="M546.47,357.81s2.22.89,2.54,2a15.11,15.11,0,0,1-2.14.21S547.57,359.2,546.47,357.81Z" transform="translate(-523.85 -311.12)"/><path class="cls-33" d="M539.75,358.23s-1.06,1.12.23,1.69C538.69,359.75,537.36,359,539.75,358.23Z" transform="translate(-523.85 -311.12)"/><path class="cls-34" d="M542.85,353.25c-1-.32-3.33,1.36-4.6.94,0,0-5.92.95-1.88,1.94,0,0,1-.37,5.63-.25s6.78,0,6.78,0,2.57-1.35-1.79-1.46A28.08,28.08,0,0,1,542.85,353.25Z" transform="translate(-523.85 -311.12)"/><path class="cls-35" d="M570.73,358.47a4,4,0,0,0-1.86-1.46,5.86,5.86,0,0,0-5.74,1.12S564.1,360.39,570.73,358.47Z" transform="translate(-523.85 -311.12)"/><path class="cls-28" d="M565.28,358.77c.1.12.18.46.34.45h.89a4.83,4.83,0,0,0,.52,0,4.27,4.27,0,0,0,.7-.07,1,1,0,0,0,.61-.12c.83-.07.79-.23.89-.29a1.24,1.24,0,0,0,.35-.84c0-.89-.48-1.51-2.11-1.45-1.27.05-2.64-.19-2.45,1.31A6.26,6.26,0,0,0,565.28,358.77Z" transform="translate(-523.85 -311.12)"/><circle class="cls-29" cx="43.44" cy="46.64" r="0.44"/><path class="cls-36" d="M571.15,358.2a5.61,5.61,0,0,0-8.19.07" transform="translate(-523.85 -311.12)"/><path class="cls-37" d="M569.53,357.11a.12.12,0,0,0-.11.21c.44.33,1,.7,1,1s-1.49.53-2.36.81a25.2,25.2,0,0,1,5-.32S572.29,357.94,569.53,357.11Z" transform="translate(-523.85 -311.12)"/><path class="cls-37" d="M563.55,357.76a4,4,0,0,0-1.37.59c-1,.81-1.82,1.53,2.63.76C564.81,359.11,562.76,358.35,563.55,357.76Z" transform="translate(-523.85 -311.12)"/><path class="cls-38" d="M561,357.6c.78-1.33,3-3.44,4.42-1.7l0,.09-2.22.45a7.16,7.16,0,0,0-2.08,1.22l-.08-.06Z" transform="translate(-523.85 -311.12)"/><path class="cls-39" d="M566.29,355.89c2.73-.4,6.73-.68,8.22,2.21l-.07.07c-2-.85-3.8-1.81-6-2a17.16,17.16,0,0,0-2.16-.16v-.1Z" transform="translate(-523.85 -311.12)"/><path class="cls-40" d="M564,358.76c2,.65,4-.29,6-.16-1.28,1.48-4.82,1.92-6,.16Z" transform="translate(-523.85 -311.12)"/><path class="cls-41" d="M566,351.84c1-.36,3.44,1.53,4.76,1.05,0,0,6.11,1.07,1.94,2.17,0,0-1-.41-5.82-.28s-5.34.05-5.34.05-2.74-.38.19-1.68A27,27,0,0,0,566,351.84Z" transform="translate(-523.85 -311.12)"/><path class="cls-42" d="M565.42,352.15a4.82,4.82,0,0,1-3.23,0s-1.74-.24-2.37,2.52c0,0-.21,1.43,1.78.2a6.94,6.94,0,0,1,3.62-.25,12.12,12.12,0,0,0,3.47.05s5.41,0,1.32-1.22C570,353.45,566.85,352.66,565.42,352.15Z" transform="translate(-523.85 -311.12)"/><path id="Lnosetral-outer" class="cls-43" d="M562.79,375s-3.3-.52-3.51,1.51c0,0,1.84-1.05,2.63-.44C561.91,376.1,564.08,376.2,562.79,375Z" transform="translate(-523.85 -311.12)"/><path id="Lnosetrail-inner" class="cls-44" d="M561.49,375s-1.25.32-1.33.83c0,0,1.78-.35,2.05,0s.23-.63.23-.63S562.35,374.92,561.49,375Z" transform="translate(-523.85 -311.12)"/><path class="cls-45" d="M561.6,370.49s4.26,3.72,1.64,4.48C563.24,375,570.69,372.49,561.6,370.49Z" transform="translate(-523.85 -311.12)"/><path id="Louter-shadow" class="cls-46" d="M563.16,372.15s1.3,2,.22,2.67C563.38,374.82,566.19,374,563.16,372.15Z" transform="translate(-523.85 -311.12)"/><path id="Ldimple" class="cls-47" d="M565.22,372.1a1.72,1.72,0,0,1,2.09,1.15s-.26.95,2.31,2.5a7.24,7.24,0,0,1,3.72,7.55s-.22,3.33-.47-1.94a5.09,5.09,0,0,0-.86-2.62c-.78-.88-1.06-1.81-2.54-2.2a7.24,7.24,0,0,1-2.36-2.2,1.44,1.44,0,0,1-1.36-1.09C565.48,372.17,565.22,372.1,565.22,372.1Z" transform="translate(-523.85 -311.12)"/><path class="cls-48" d="M547.67,372.37s-1,2,.26,3.06a1.35,1.35,0,0,0,1.78.31s3.18.5,3.44,2.11-3.44.57-3.44.57-2.07-.23.52-.75c0,0,1.57-.93-.15-1.13a8,8,0,0,1-2.19-.44,2.67,2.67,0,0,1-.88-2.19C547.2,372.63,547.67,372.37,547.67,372.37Z" transform="translate(-523.85 -311.12)"/><path class="cls-49" d="M551.83,368.21s-13,11.36-10.44,15.09c0,0-1.91-3,6.94-11.15,0,0,1.26-1.38,2.62.4A7,7,0,0,1,551.83,368.21Z" transform="translate(-523.85 -311.12)"/><path class="cls-50" d="M549.86,375.73s3.86,1.19,2.41,2.12-1.75.88-1.75.88-.81.24.44-1.32c0,0,.52-.83-1.32-.91C549.64,376.5,548.73,376.32,549.86,375.73Z" transform="translate(-523.85 -311.12)"/><path class="cls-51" d="M583.38,363s.65,5.07-.59,7.54" transform="translate(-523.85 -311.12)"/></svg>