<?xml version="1.0" encoding="UTF-8" standalone="no"?>
<svg
   xmlns:dc="http://purl.org/dc/elements/1.1/"
   xmlns:cc="http://creativecommons.org/ns#"
   xmlns:rdf="http://www.w3.org/1999/02/22-rdf-syntax-ns#"
   xmlns:svg="http://www.w3.org/2000/svg"
   xmlns="http://www.w3.org/2000/svg"
   xmlns:sodipodi="http://sodipodi.sourceforge.net/DTD/sodipodi-0.dtd"
   xmlns:inkscape="http://www.inkscape.org/namespaces/inkscape"
   version="1.1"
   id="svg2"
   xml:space="preserve"
   width="3439.6667"
   height="3583.04"
   viewBox="0 0 3439.6667 3583.04"
   sodipodi:docname="unreal-engine_logo.eps"><metadata
     id="metadata8"><rdf:RDF><cc:Work
         rdf:about=""><dc:format>image/svg+xml</dc:format><dc:type
           rdf:resource="http://purl.org/dc/dcmitype/StillImage" /></cc:Work></rdf:RDF></metadata><defs
     id="defs6"><clipPath
       clipPathUnits="userSpaceOnUse"
       id="clipPath20"><path
         d="m 16537,14756.8 c 0,0 136.2,-204 476.4,-204 385.3,0 1031.2,249.4 2062.9,1348.8 0,0 -1099.5,-2504.8 -3366.5,-3853.5 l -1246.9,1053.9 -33.9,22.7 -1360.2,-1450.7 c 0,0 -3082.93,272.1 -4375.14,2142.1 0,0 204.01,-79.4 419.35,-79.4 260.74,-11.2 544.04,90.7 544.04,521.4 V 18667 c 0,226.7 -158.61,476.1 -498.65,476.1 -306,-11.3 -748.19,-215.3 -1348.81,-827.5 -1258.16,-1303.4 -1768.15,-2550.1 -1768.15,-2550.1 0,0 -362.75,1790.8 1530.1,3966.9 1892.85,2176.1 3320.96,2969.6 4851.26,3377.6 0,0 -1212.8,-714 -1212.8,-1779.5 0,-317.4 45.3,-521.4 113.3,-668.6 90.7,-181.5 226.7,-249.4 351.4,-249.4 102,0 204,45.4 283.3,102 v -5791.8 c 0,0 34.1,-90.6 113.4,-204 124.7,-158.6 340,-351.4 702.8,-351.4 600.6,0 1382.7,691.5 1382.7,691.5 v 4692.3 c 0,476.1 -351.4,1054 -714,1246.7 0,0 770.6,45.4 1144.9,-249.3 0,0 1269.4,1530.1 3604.2,1994.7 0,0 -1246.7,-1484.7 -1643.5,-2221.4 -68.1,-11.3 -79.3,-1394 -68.1,-2788.2 11.5,-1337.4 34.2,-2686.2 56.6,-2776.8 z"
         clip-rule="evenodd"
         id="path18" /></clipPath><clipPath
       clipPathUnits="userSpaceOnUse"
       id="clipPath30"><path
         d="m 3457,17375 c 0,5247.7 4216.54,9497.8 9430.5,9497.8 5202.5,0 9419.1,-4250.1 9407.6,-9497.8 0,-5247.9 -4216.3,-9497.9 -9419,-9497.9 -5202.56,0 -9419.1,4250 -9419.1,9497.9 z m 15800.3,6415 c -1700,1722.8 -3967,2663.5 -6369.8,2663.5 -2414.3,0 -4669.91,-940.7 -6370.12,-2663.5 -1700.21,-1722.7 -2640.89,-4000.9 -2640.89,-6426.4 0,-2425.5 940.68,-4715 2640.89,-6426.3 1700.21,-1722.7 3967.12,-2663.7 6370.12,-2663.7 2402.8,0 4669.8,952.2 6369.8,2663.7 1700.4,1722.8 2641.3,4000.8 2641.3,6426.3 0,2425.5 -940.9,4715 -2641.3,6426.4 z"
         clip-rule="evenodd"
         id="path28" /></clipPath><clipPath
       clipPathUnits="userSpaceOnUse"
       id="clipPath40"><path
         d="M 8092.89,1881.4 H 6109.38 V 33.9023 H 8126.93 V 453.402 h -1473.5 v 317.2 H 8013.58 V 1155.9 H 6653.43 v 317.5 h 1439.46 z"
         clip-rule="evenodd"
         id="path38" /></clipPath><clipPath
       clipPathUnits="userSpaceOnUse"
       id="clipPath50"><path
         d="m 10858.6,1881.4 h -532.8 V 487.301 h -11.2 L 9260.4,1881.4 H 8432.93 V 33.9023 h 532.82 V 1416.8 h 11.21 L 10053.8,33.9023 h 804.8 z"
         clip-rule="evenodd"
         id="path48" /></clipPath><clipPath
       clipPathUnits="userSpaceOnUse"
       id="clipPath60"><path
         d="m 12513.4,1881.4 h -79.3 c -170.1,0 -317.3,0 -442,-11.2 -124.7,-11.5 -226.7,-23 -317.4,-45.4 -90.8,-22.7 -158.7,-56.6 -215.5,-102 -56.6,-34.2 -90.6,-90.8 -124.5,-158.6 -22.7,-68.4 -45.4,-147.4 -56.8,-249.4 -11.3,-90.8 -11.3,-204 -11.3,-340.198 v -45.403 c 0,-124.398 0,-249.398 11.3,-339.898 11.4,-102 22.7,-181.301 56.8,-249.399 22.5,-68.101 67.9,-124.699 124.5,-170.101 56.8,-45.399 124.7,-79.301 215.5,-102.0002 90.7,-22.3985 192.7,-33.8985 317.4,-45.3985 124.7,-11.1992 271.9,-11.1992 442,-11.1992 V 0 h 45.2 c 147.5,0 272.2,0 385.5,11.2031 113.3,11.1992 204,22.6992 283.3,45.3985 79.6,22.4023 147.4,45.3984 192.8,79.3004 56.6,33.899 90.8,79.301 124.7,124.7 33.9,45.402 56.6,102 68.1,169.8 11.2,68.102 22.4,147.399 22.4,238.2 V 1076.6 h -1224 V 725.203 h 702.7 v -56.601 c 0,-22.7 -11.2,-56.602 -11.2,-79.301 0,-33.899 -11.4,-45.399 -22.8,-68.098 -11.3,-22.699 -34,-33.902 -56.7,-45.402 -22.7,-11.199 -56.6,-11.199 -102,-22.399 -34,0 -90.6,-11.5 -147.4,-11.5 h -521.3 c -68,0 -136.1,11.5 -181.3,22.7 -45.4,11.199 -90.7,22.699 -113.4,45.398 -34,22.402 -56.7,56.602 -68.1,90.5 -11.3,33.902 -22.5,79.301 -22.5,135.902 -11.4,45.399 -11.4,113.5 -11.4,192.797 v 34.203 c 0,78.998 11.4,147.398 11.4,203.998 0,56.6 11.2,102 22.5,135.9 22.7,33.9 45.4,68.1 68.1,90.5 22.7,11.5 68,34.2 113.4,45.4 45.2,11.5 113.3,23 181.3,23 h 305.9 c 113.4,0 204.2,0 272.2,-11.5 67.9,0 124.6,-11.5 158.7,-33.9 45.2,-11.5 67.9,-34.2 79.3,-68.1 11.3,-22.7 22.7,-56.9 22.7,-102 V 1224 h 521.5 v 67.8 c 0,79.6 0,158.9 -11.5,215.5 -11.5,68.1 -22.7,113.5 -56.6,158.9 -22.7,33.6 -68.1,79 -113.5,102 -56.6,33.6 -113.2,56.6 -192.8,67.8 -67.8,11.2 -169.8,22.7 -271.8,34.2 -102,11.2 -226.7,11.2 -374.1,11.2 z"
         clip-rule="evenodd"
         id="path58" /></clipPath><clipPath
       clipPathUnits="userSpaceOnUse"
       id="clipPath70"><path
         d="m 16503.4,33.9023 h 804.8 V 1858.7 h -521.8 V 487.301 h -11.2 L 15721,1858.7 h -816 V 33.9023 h 521.2 V 1405.3 h 11.5 z"
         clip-rule="evenodd"
         id="path68" /></clipPath><clipPath
       clipPathUnits="userSpaceOnUse"
       id="clipPath80"><path
         d="M 19733.7,33.9023 V 441.902 h -1462.2 v 317.5 h 1360.2 V 1144.7 h -1360.2 v 317.5 h 1428 v 396.5 H 17738.6 V 33.9023 Z"
         clip-rule="evenodd"
         id="path78" /></clipPath><clipPath
       clipPathUnits="userSpaceOnUse"
       id="clipPath90"><path
         d="M 3978.5,4046.3 V 6131.6 H 3026.31 V 4352.3 c 0,-113.5 0,-204 -11.35,-283.6 -11.35,-79.3 -22.54,-147.4 -45.23,-204 -22.7,-56.6 -56.74,-102 -102.01,-135.9 -45.39,-33.9 -113.34,-56.9 -181.43,-79.3 -79.31,-11.5 -169.95,-22.7 -271.95,-34.2 -113.35,-11.2 -238.04,-11.2 -385.43,-11.2 h -79.31 c -147.38,0 -283.45,0 -385.43,11.2 -113.36,0 -203.99,11.5 -271.95,34.2 -79.46,22.4 -136.05,45.4 -181.44,79.3 -45.25,33.9 -79.3,79.3 -102.01,135.9 -22.696,56.6 -34.043,124.7 -45.247,204 -11.343,79.6 -11.343,170.1 -11.343,283.6 V 6131.6 H 0 V 4046.3 c 0,-158.9 11.3477,-294.8 34.0508,-419.5 22.6953,-124.7 56.6055,-226.7 113.3512,-317.5 56.602,-79.3 136.043,-158.6 226.692,-215.2 90.652,-56.6 204.004,-102 351.394,-136.2 147.239,-33.9 317.342,-56.6 509.992,-67.8 203.98,-11.5 430.67,-22.7 691.42,-22.7 h 124.7 c 260.73,0 487.43,11.2 691.43,22.7 192.65,11.2 362.73,33.9 509.98,67.8 136.05,34.2 260.75,79.6 351.4,136.2 101.99,56.6 170.08,124.4 226.69,215.2 56.74,90.8 90.64,192.8 113.35,317.5 22.7,124.7 34.05,260.6 34.05,419.5 z"
         clip-rule="evenodd"
         id="path88" /></clipPath><clipPath
       clipPathUnits="userSpaceOnUse"
       id="clipPath100"><path
         d="m 4613.18,2901.3 h 929.48 v 2414.4 h 22.69 L 7435.51,2901.3 H 8852.4 V 6131.6 H 7922.93 V 3717.3 h -11.35 L 6052.63,6131.6 H 4613.18 Z"
         clip-rule="evenodd"
         id="path98" /></clipPath><clipPath
       clipPathUnits="userSpaceOnUse"
       id="clipPath110"><path
         d="m 12400.1,2901.3 h 918.1 v 510 c 0,147.4 -11.5,260.6 -22.7,351.4 -11.2,90.8 -34.2,170.1 -79.3,226.7 -45.4,56.9 -102,90.8 -170.1,124.7 -79.3,22.7 -170,45.4 -283.3,68.1 v 22.7 c 102,22.4 192.6,56.6 260.8,102 67.9,45.4 124.5,102 169.9,169.8 45.4,68.1 79.3,158.6 102,249.4 22.7,90.8 34.2,204 34.2,328.7 v 113.5 c 0,181.3 -23,339.9 -56.9,464.6 -33.9,124.7 -102,226.7 -204,306 -90.7,68.1 -226.7,124.7 -396.7,158.6 -170,34.1 -385.4,45.3 -646.1,45.3 H 9509.79 V 2912.6 h 940.71 v 895.5 h 952.1 c 147.4,0 283.3,-11.2 385.5,-11.2 113.3,-11.5 204,-23 271.9,-34.2 79.3,-22.4 136.1,-33.9 181.3,-67.8 45.4,-23 79.5,-68.1 102.2,-113.5 22.5,-45.4 33.9,-102 45.2,-170.1 11.4,-79.3 11.4,-158.6 11.4,-249.4 z m -362.8,1609.6 c -102,-11.2 -238,-11.2 -396.6,-11.2 h -1178.9 v 918 H 11652 c 158.6,0 283.3,0 385.3,-11.5 102,-11.5 170.1,-22.7 226.7,-56.6 56.8,-22.7 90.7,-68.1 102,-124.7 11.4,-56.6 22.7,-136.2 22.7,-226.7 v -56.6 c 0,-90.8 -11.3,-170.1 -22.7,-226.7 -22.5,-56.6 -56.6,-102 -102,-136.2 -56.6,-33.9 -124.7,-56.6 -226.7,-67.8 z"
         clip-rule="evenodd"
         id="path108" /></clipPath><clipPath
       clipPathUnits="userSpaceOnUse"
       id="clipPath120"><path
         d="M 13952.9,6131.6 V 2901.3 H 17478 V 3638 h -2573 v 555.4 h 2380.2 v 680.1 H 14905 v 544.2 h 2516.4 v 713.9 z"
         clip-rule="evenodd"
         id="path118" /></clipPath><clipPath
       clipPathUnits="userSpaceOnUse"
       id="clipPath130"><path
         d="m 17670.8,2901.3 h 1019.9 l 294.8,578.1 h 2017.6 l 294.8,-578.1 H 22329 l -1756.6,3230.3 h -1167.7 z m 2334.7,2561.8 657.4,-1303.6 h -1337.2 l 657.4,1303.6 z"
         clip-rule="evenodd"
         id="path128" /></clipPath><clipPath
       clipPathUnits="userSpaceOnUse"
       id="clipPath140"><path
         d="M 22680.4,6131.6 V 2901.3 h 3117.1 v 748.2 h -2164.9 v 2482.1 z"
         clip-rule="evenodd"
         id="path138" /></clipPath><clipPath
       clipPathUnits="userSpaceOnUse"
       id="clipPath150"><path
         d="M 13952.9,1858.7 H 14497 V 22.4023 h -544.1 z"
         clip-rule="evenodd"
         id="path148" /></clipPath></defs><sodipodi:namedview
     pagecolor="#ffffff"
     bordercolor="#666666"
     borderopacity="1"
     objecttolerance="10"
     gridtolerance="10"
     guidetolerance="10"
     inkscape:pageopacity="0"
     inkscape:pageshadow="2"
     inkscape:window-width="640"
     inkscape:window-height="480"
     id="namedview4" /><g
     id="g10"
     inkscape:groupmode="layer"
     inkscape:label="ink_ext_XXXXXX"
     transform="matrix(1.3333333,0,0,-1.3333333,0,3583.04)"><g
       id="g12"
       transform="scale(0.1)"><g
         id="g14"><g
           id="g16"
           clip-path="url(#clipPath20)"><path
             d="M 5871.35,23246 H 19200.7 V 11526.6 H 5871.35 V 23246"
             style="fill:#393f3e;fill-opacity:1;fill-rule:nonzero;stroke:none"
             id="path22" /></g></g><g
         id="g24"><g
           id="g26"
           clip-path="url(#clipPath30)"><path
             d="M 3321.11,27008.8 H 22431 V 7741.2 H 3321.11 v 19267.6"
             style="fill:#393f3e;fill-opacity:1;fill-rule:nonzero;stroke:none"
             id="path32" /></g></g><g
         id="g34"><g
           id="g36"
           clip-path="url(#clipPath40)"><path
             d="M 5973.35,2006.1 H 8251.63 V -113.496 H 5973.35 V 2006.1"
             style="fill:#393f3e;fill-opacity:1;fill-rule:nonzero;stroke:none"
             id="path42" /></g></g><g
         id="g44"><g
           id="g46"
           clip-path="url(#clipPath50)"><path
             d="M 8296.87,2006.1 H 10994.6 V -113.496 H 8296.87 V 2006.1"
             style="fill:#393f3e;fill-opacity:1;fill-rule:nonzero;stroke:none"
             id="path52" /></g></g><g
         id="g54"><g
           id="g56"
           clip-path="url(#clipPath60)"><path
             d="m 11130.6,2017.3 h 2584.1 V -125 h -2584.1 v 2142.3"
             style="fill:#393f3e;fill-opacity:1;fill-rule:nonzero;stroke:none"
             id="path62" /></g></g><g
         id="g64"><g
           id="g66"
           clip-path="url(#clipPath70)"><path
             d="m 14768.8,1994.6 h 2675 V -102 h -2675 v 2096.6"
             style="fill:#393f3e;fill-opacity:1;fill-rule:nonzero;stroke:none"
             id="path72" /></g></g><g
         id="g74"><g
           id="g76"
           clip-path="url(#clipPath80)"><path
             d="m 17602.7,1994.6 h 2266.9 V -102 h -2266.9 v 2096.6"
             style="fill:#393f3e;fill-opacity:1;fill-rule:nonzero;stroke:none"
             id="path82" /></g></g><g
         id="g84"><g
           id="g86"
           clip-path="url(#clipPath90)"><path
             d="M -136.035,6267.5 H 4103.19 v -3536 H -136.035 v 3536"
             style="fill:#393f3e;fill-opacity:1;fill-rule:nonzero;stroke:none"
             id="path92" /></g></g><g
         id="g94"><g
           id="g96"
           clip-path="url(#clipPath100)"><path
             d="M 4477.12,6267.5 H 8988.31 V 2765.4 H 4477.12 v 3502.1"
             style="fill:#393f3e;fill-opacity:1;fill-rule:nonzero;stroke:none"
             id="path102" /></g></g><g
         id="g104"><g
           id="g106"
           clip-path="url(#clipPath110)"><path
             d="m 9385.1,6267.5 h 4092 V 2765.4 h -4092 v 3502.1"
             style="fill:#393f3e;fill-opacity:1;fill-rule:nonzero;stroke:none"
             id="path112" /></g></g><g
         id="g114"><g
           id="g116"
           clip-path="url(#clipPath120)"><path
             d="m 13828.2,6267.5 h 3786 V 2765.4 h -3786 v 3502.1"
             style="fill:#393f3e;fill-opacity:1;fill-rule:nonzero;stroke:none"
             id="path122" /></g></g><g
         id="g124"><g
           id="g126"
           clip-path="url(#clipPath130)"><path
             d="m 17545.8,6267.5 h 4919.4 V 2765.4 h -4919.4 v 3502.1"
             style="fill:#393f3e;fill-opacity:1;fill-rule:nonzero;stroke:none"
             id="path132" /></g></g><g
         id="g134"><g
           id="g136"
           clip-path="url(#clipPath140)"><path
             d="m 22544.5,6267.5 h 3377.7 V 2765.4 h -3377.7 v 3502.1"
             style="fill:#393f3e;fill-opacity:1;fill-rule:nonzero;stroke:none"
             id="path142" /></g></g><g
         id="g144"><g
           id="g146"
           clip-path="url(#clipPath150)"><path
             d="m 13817,1994.6 h 804.5 V -102 H 13817 v 2096.6"
             style="fill:#393f3e;fill-opacity:1;fill-rule:nonzero;stroke:none"
             id="path152" /></g></g></g></g></svg>
